<svg width="1200" height="700" viewBox="0 0 1200 700" fill="none" xmlns="http://www.w3.org/2000/svg">
  <rect width="1200" height="700" rx="24" fill="#070F17"/>
  <rect x="34" y="34" width="1132" height="632" rx="20" fill="#0A1520" stroke="#233244"/>
  <text x="70" y="90" fill="#A7F3D0" font-family="IBM Plex Mono, monospace" font-size="28" font-weight="700">AGENT OBSERVABILITY MATRIX</text>
  <rect x="70" y="120" width="1060" height="96" rx="12" fill="#0D1C29" stroke="#2C4A61"/>
  <text x="90" y="156" fill="#BAE6FD" font-family="IBM Plex Mono, monospace" font-size="16">Top Signals: momentum, volatility, mean_reversion, options, breakout</text>
  <text x="90" y="186" fill="#E2E8F0" font-family="IBM Plex Mono, monospace" font-size="14">Live score blends confidence, calibration, latency, and realized outcomes.</text>
  <rect x="70" y="240" width="510" height="360" rx="12" fill="#111827" stroke="#2A3B53"/>
  <text x="90" y="278" fill="#93C5FD" font-family="IBM Plex Mono, monospace" font-size="16">Performance</text>
  <line x1="90" y1="310" x2="540" y2="310" stroke="#334155"/>
  <rect x="90" y="330" width="420" height="24" rx="6" fill="#064E3B"/>
  <rect x="90" y="370" width="360" height="24" rx="6" fill="#0E7490"/>
  <rect x="90" y="410" width="300" height="24" rx="6" fill="#1D4ED8"/>
  <text x="520" y="347" fill="#E2E8F0" font-family="IBM Plex Mono, monospace" font-size="12">78%</text>
  <text x="460" y="387" fill="#E2E8F0" font-family="IBM Plex Mono, monospace" font-size="12">66%</text>
  <text x="400" y="427" fill="#E2E8F0" font-family="IBM Plex Mono, monospace" font-size="12">55%</text>
  <rect x="620" y="240" width="510" height="360" rx="12" fill="#141A12" stroke="#405138"/>
  <text x="640" y="278" fill="#BBF7D0" font-family="IBM Plex Mono, monospace" font-size="16">Reliability</text>
  <line x1="640" y1="310" x2="1090" y2="310" stroke="#3F4A3C"/>
  <text x="640" y="350" fill="#E2E8F0" font-family="IBM Plex Mono, monospace" font-size="13">Auth Failures (24h)</text>
  <rect x="840" y="336" width="220" height="14" rx="7" fill="#3F6212"/>
  <rect x="840" y="336" width="42" height="14" rx="7" fill="#84CC16"/>
  <text x="1068" y="348" fill="#E2E8F0" font-family="IBM Plex Mono, monospace" font-size="11">4</text>
  <text x="640" y="400" fill="#E2E8F0" font-family="IBM Plex Mono, monospace" font-size="13">Execution Error Rate</text>
  <rect x="840" y="386" width="220" height="14" rx="7" fill="#7C2D12"/>
  <rect x="840" y="386" width="28" height="14" rx="7" fill="#FB923C"/>
  <text x="1060" y="398" fill="#E2E8F0" font-family="IBM Plex Mono, monospace" font-size="11">3.1%</text>
  <text x="640" y="450" fill="#E2E8F0" font-family="IBM Plex Mono, monospace" font-size="13">Submit Rate</text>
  <rect x="840" y="436" width="220" height="14" rx="7" fill="#1E3A8A"/>
  <rect x="840" y="436" width="196" height="14" rx="7" fill="#60A5FA"/>
  <text x="1060" y="448" fill="#E2E8F0" font-family="IBM Plex Mono, monospace" font-size="11">89%</text>
</svg>
